<svg width="1013" height="1013" viewBox="0 0 1013 1013" fill="none" xmlns="http://www.w3.org/2000/svg">
<rect x="152.788" y="152.788" width="707" height="707" stroke="#0BE92C" stroke-width="9"/>
<rect x="6.36396" y="506.288" width="707" height="707" transform="rotate(-45 6.36396 506.288)" stroke="#0BE92C" stroke-width="9"/>
<path d="M346.626 484V353.043H387.495L408.765 413.336C409.644 416.148 410.669 419.752 411.841 424.146C413.013 428.482 414.185 433.141 415.357 438.121C416.587 443.102 417.701 447.936 418.697 452.623C419.751 457.252 420.63 461.266 421.333 464.664H415.708C416.411 461.324 417.261 457.34 418.257 452.711C419.312 448.082 420.425 443.277 421.597 438.297C422.828 433.258 423.999 428.541 425.113 424.146C426.285 419.752 427.339 416.148 428.277 413.336L449.195 353.043H490.152V484H463.257V422.125C463.257 419.254 463.286 415.709 463.345 411.49C463.462 407.271 463.579 402.73 463.697 397.867C463.872 393.004 464.019 388.111 464.136 383.189C464.253 378.209 464.341 373.521 464.4 369.127H466.421C465.249 373.932 463.96 378.883 462.554 383.98C461.206 389.078 459.829 394.059 458.423 398.922C457.076 403.727 455.786 408.15 454.556 412.193C453.384 416.178 452.359 419.488 451.48 422.125L429.683 484H407.183L385.122 422.125C384.185 419.488 383.101 416.178 381.87 412.193C380.699 408.209 379.41 403.814 378.003 399.01C376.597 394.205 375.191 389.254 373.785 384.156C372.378 379.059 371.031 374.049 369.742 369.127H372.203C372.261 373.346 372.349 377.916 372.466 382.838C372.583 387.76 372.701 392.682 372.818 397.604C372.935 402.525 373.052 407.125 373.169 411.402C373.286 415.621 373.345 419.195 373.345 422.125V484H346.626Z" fill="white"/>
<path d="M535.626 658V527.043H622.902V549.543H562.521V585.139H617.453V607.111H562.521V658H535.626Z" fill="white"/>
<path d="M664.788 453.125C664.788 460.029 670.385 465.625 677.288 465.625C670.751 465.625 665.387 470.644 664.836 477.038H664.741C664.19 470.644 658.826 465.625 652.288 465.625C659.192 465.625 664.788 460.029 664.788 453.125C664.788 453.083 664.787 453.042 664.786 453H664.79C664.79 453.042 664.788 453.083 664.788 453.125Z" fill="#0BE92C"/>
<path d="M422.015 633.979C430.396 563.096 490.216 424.452 662.448 436.943C601.11 448.461 467.149 503.992 422.015 633.979Z" fill="#0BE92C"/>
<path d="M644.288 409.312C644.288 426.432 658.168 440.312 675.288 440.312C659.076 440.312 645.773 452.757 644.407 468.615H644.17C642.804 452.757 629.501 440.312 613.288 440.312C630.409 440.312 644.288 426.432 644.288 409.312C644.288 409.208 644.286 409.104 644.285 409H644.292C644.291 409.104 644.288 409.208 644.288 409.312Z" fill="#0BE92C"/>
</svg>
